<svg width="21" height="21" viewBox="0 0 21 21" fill="none" xmlns="http://www.w3.org/2000/svg">
<path d="M17.4422 8.35747L11.1922 14.6075C11.1341 14.6656 11.0652 14.7117 10.9893 14.7431C10.9135 14.7746 10.8321 14.7908 10.75 14.7908C10.6679 14.7908 10.5865 14.7746 10.5107 14.7431C10.4348 14.7117 10.3659 14.6656 10.3078 14.6075L4.05782 8.35747C3.97031 8.27006 3.9107 8.15865 3.88655 8.03735C3.86239 7.91605 3.87477 7.7903 3.92211 7.67604C3.96946 7.56177 4.04964 7.46413 4.15252 7.39546C4.25539 7.32679 4.37632 7.29019 4.5 7.29028H17C17.1237 7.29019 17.2446 7.32679 17.3475 7.39546C17.4504 7.46413 17.5305 7.56177 17.5779 7.67604C17.6252 7.7903 17.6376 7.91605 17.6135 8.03735C17.5893 8.15865 17.5297 8.27006 17.4422 8.35747Z" fill="black"/>
</svg>
