<svg width="32" height="32" viewBox="0 0 32 32" fill="none" xmlns="http://www.w3.org/2000/svg">
<mask id="mask0_7331_2246" style="mask-type:alpha" maskUnits="userSpaceOnUse" x="0" y="0" width="32" height="32">
<rect width="32" height="32" fill="#D9D9D9"/>
</mask>
<g mask="url(#mask0_7331_2246)">
<path d="M22.267 19.3334L27.3337 15.0001L31.3337 15.3334L25.467 20.4334L27.2003 28.0001L23.8003 25.9334L22.267 19.3334ZM19.1337 9.60008L17.7337 6.33341L19.267 2.66675L22.3337 9.90008L19.1337 9.60008ZM9.80032 22.4334L14.0003 19.9001L18.2003 22.4667L17.1003 17.6667L20.8003 14.4667L15.9337 14.0334L14.0003 9.50008L12.067 14.0001L7.20033 14.4334L10.9003 17.6667L9.80032 22.4334ZM5.76699 28.0001L7.93366 18.6334L0.666992 12.3334L10.267 11.5001L14.0003 2.66675L17.7337 11.5001L27.3337 12.3334L20.067 18.6334L22.2337 28.0001L14.0003 23.0334L5.76699 28.0001Z" fill="#1C1B1F"/>
</g>
</svg>
