<?xml version="1.0" encoding="utf-8"?>
<!-- Generator: Adobe Illustrator 25.4.1, SVG Export Plug-In . SVG Version: 6.00 Build 0)  -->
<svg version="1.1" id="Layer_1" xmlns="http://www.w3.org/2000/svg" xmlns:xlink="http://www.w3.org/1999/xlink" x="0px" y="0px"
	 viewBox="0 0 150 150" style="enable-background:new 0 0 150 150;" xml:space="preserve">
<style type="text/css">
	.st0{fill:#F7F7F7;}
	.st1{fill:#BCBCBC;}
</style>
<g>
	<path class="st0" d="M150,150H0V0h150V150z M10,140h130V10H10V140z"/>
</g>
<g>
	<path class="st1" d="M110.7,104.2H39.3c-1.8,0-3.2-1.5-3.2-3.2V49.1c0-1.8,1.5-3.2,3.2-3.2h71.3c1.8,0,3.2,1.5,3.2,3.2v51.9
		C113.9,102.7,112.5,104.2,110.7,104.2z M72.2,80.8l-5.5-5.7L51.1,92.8h48.8L82.4,66.3L72.2,80.8L72.2,80.8z M63.5,66.1
		c0-3.4-2.8-6.1-6.1-6.1c-3.4,0-6.1,2.8-6.1,6.1c0,3.4,2.8,6.1,6.1,6.1S63.5,69.5,63.5,66.1L63.5,66.1z"/>
</g>
</svg>
