<svg width="33" height="23" viewBox="0 0 33 23" fill="none" xmlns="http://www.w3.org/2000/svg">
<rect x="0.84081" y="0.860829" width="31.011" height="20.978" rx="3.19231" fill="white" stroke="#D9D9D9" stroke-width="0.912088"/>
<path d="M4.96429 9.62851C5.35805 9.62851 5.66232 9.71502 5.8771 9.88803C6.09486 10.0581 6.20374 10.3012 6.20374 10.6174C6.20374 10.8471 6.14706 11.038 6.03371 11.1901C5.92035 11.3423 5.76076 11.4541 5.55493 11.5257L6.21269 12.6265H5.40279L4.81215 11.6152H4.38707V12.6265H3.69799V9.62851H4.96429ZM4.94639 11.0738C5.11642 11.0738 5.24768 11.0395 5.34015 10.9709C5.43262 10.8993 5.47886 10.8023 5.47886 10.68C5.47886 10.5577 5.43262 10.4623 5.34015 10.3937C5.24768 10.3221 5.11642 10.2863 4.94639 10.2863H4.38707V11.0738H4.94639ZM6.71744 9.62851H8.91893V10.2415H7.40652V10.8366H8.65493V11.4273H7.40652V12.0134H8.91893V12.6265H6.71744V9.62851ZM9.2176 11.1275C9.2176 10.9157 9.25787 10.7158 9.33842 10.5279C9.42194 10.34 9.53381 10.1759 9.67401 10.0357C9.81421 9.89549 9.97828 9.78512 10.1662 9.70457C10.3571 9.62403 10.56 9.58376 10.7748 9.58376C10.9686 9.58376 11.1506 9.61359 11.3206 9.67325C11.4907 9.73291 11.6413 9.81644 11.7726 9.92383C11.9068 10.0312 12.0187 10.1595 12.1082 10.3086C12.1977 10.4578 12.2588 10.6219 12.2916 10.8008H11.5265C11.4758 10.6398 11.3833 10.5115 11.2491 10.416C11.1148 10.3206 10.9582 10.2728 10.7792 10.2728C10.6629 10.2728 10.554 10.2952 10.4526 10.34C10.3512 10.3847 10.2617 10.4459 10.1841 10.5234C10.1095 10.601 10.0499 10.692 10.0051 10.7964C9.96336 10.8978 9.94248 11.0067 9.94248 11.123C9.94248 11.2423 9.96336 11.3542 10.0051 11.4586C10.0499 11.563 10.1095 11.654 10.1841 11.7316C10.2617 11.8091 10.3512 11.8703 10.4526 11.915C10.554 11.9598 10.6629 11.9821 10.7792 11.9821C10.9582 11.9821 11.1148 11.9344 11.2491 11.8389C11.3833 11.7435 11.4758 11.6152 11.5265 11.4541H12.2916C12.2588 11.6331 12.1977 11.7972 12.1082 11.9463C12.0187 12.0955 11.9068 12.2238 11.7726 12.3311C11.6413 12.4385 11.4907 12.5221 11.3206 12.5817C11.1506 12.6414 10.9686 12.6712 10.7748 12.6712C10.56 12.6712 10.3571 12.6309 10.1662 12.5504C9.97828 12.4699 9.81421 12.3595 9.67401 12.2193C9.53381 12.0791 9.42194 11.915 9.33842 11.7271C9.25787 11.5391 9.2176 11.3393 9.2176 11.1275ZM12.7389 9.62851H13.428V10.8993H14.7032V9.62851H15.3923V12.6265H14.7032V11.5257H13.428V12.6265H12.7389V9.62851ZM16.0205 9.62851H16.8886L17.9848 11.6197V9.62851H18.6739V12.6265H17.8103L16.7096 10.6308V12.6265H16.0205V9.62851ZM20.564 12.6712C20.1464 12.6712 19.8242 12.5653 19.5975 12.3535C19.3708 12.1417 19.2574 11.8375 19.2574 11.4407V9.62851H19.9465V11.3825C19.9465 11.5824 20.0002 11.739 20.1076 11.8524C20.2179 11.9627 20.3701 12.0179 20.564 12.0179C20.7549 12.0179 20.904 11.9627 21.0114 11.8524C21.1188 11.739 21.1725 11.5824 21.1725 11.3825V9.62851H21.8616V11.4407C21.8616 11.8375 21.7497 12.1417 21.526 12.3535C21.3023 12.5653 20.9816 12.6712 20.564 12.6712ZM22.444 9.62851H23.312L24.4083 11.6197V9.62851H25.0974V12.6265H24.2338L23.133 10.6308V12.6265H22.444V9.62851ZM26.9964 12.6712C26.7876 12.6712 26.5952 12.6339 26.4192 12.5593C26.2461 12.4848 26.0955 12.3804 25.9672 12.2461C25.8419 12.1119 25.7435 11.9508 25.6719 11.7629C25.6033 11.572 25.569 11.3602 25.569 11.1275C25.569 10.9157 25.6078 10.7158 25.6853 10.5279C25.7629 10.34 25.8688 10.1759 26.003 10.0357C26.1402 9.89549 26.3028 9.78512 26.4907 9.70457C26.6787 9.62403 26.883 9.58376 27.1038 9.58376C27.2857 9.58376 27.4543 9.60763 27.6094 9.65535C27.7675 9.7001 27.9077 9.76722 28.03 9.85671C28.1523 9.94322 28.2567 10.0491 28.3432 10.1744C28.4327 10.2967 28.4983 10.4369 28.5401 10.595H27.7123C27.6616 10.4846 27.5811 10.3996 27.4707 10.34C27.3603 10.2803 27.2335 10.2505 27.0903 10.2505C26.971 10.2505 26.8621 10.2728 26.7637 10.3176C26.6653 10.3594 26.5802 10.419 26.5086 10.4966C26.44 10.5741 26.3863 10.6651 26.3476 10.7695C26.3118 10.8739 26.2939 10.9873 26.2939 11.1096C26.2939 11.39 26.3729 11.6092 26.531 11.7673C26.6891 11.9254 26.9084 12.0045 27.1888 12.0045C27.3469 12.0045 27.4841 11.9777 27.6004 11.924C27.7198 11.8703 27.8093 11.7942 27.8689 11.6958V11.4541H27.1933V10.9575H28.558V12.6265H27.8689V12.3446C27.7645 12.449 27.6392 12.5295 27.4931 12.5862C27.3469 12.6429 27.1813 12.6712 26.9964 12.6712Z" fill="#000030"/>
<g opacity="0.1">
<mask id="mask0_8555_48699" style="mask-type:alpha" maskUnits="userSpaceOnUse" x="8" y="2" width="17" height="17">
<rect x="8.38477" y="2.62646" width="16" height="16" fill="#D9D9D9"/>
</mask>
<g mask="url(#mask0_8555_48699)">
<path d="M13.7179 14.6266H19.0513V13.2933H13.7179V14.6266ZM13.7179 11.96H19.0513V10.6266H13.7179V11.96ZM12.3846 17.2933C12.0179 17.2933 11.704 17.1627 11.4429 16.9016C11.1818 16.6405 11.0513 16.3266 11.0513 15.96V5.29329C11.0513 4.92663 11.1818 4.61274 11.4429 4.35163C11.704 4.09052 12.0179 3.95996 12.3846 3.95996H17.7179L21.7179 7.95996V15.96C21.7179 16.3266 21.5874 16.6405 21.3263 16.9016C21.0652 17.1627 20.7513 17.2933 20.3846 17.2933H12.3846ZM17.0513 8.62663V5.29329H12.3846V15.96H20.3846V8.62663H17.0513Z" fill="#1C1B1F"/>
</g>
</g>
</svg>
