<svg width="20" height="21" viewBox="0 0 20 21" fill="none" xmlns="http://www.w3.org/2000/svg">
<path d="M10 0.750244C8.07164 0.750244 6.18657 1.32207 4.58319 2.39342C2.97982 3.46476 1.73013 4.9875 0.992179 6.76908C0.254225 8.55066 0.061142 10.5111 0.437348 12.4024C0.813554 14.2937 1.74215 16.031 3.10571 17.3945C4.46928 18.7581 6.20656 19.6867 8.09787 20.0629C9.98919 20.4391 11.9496 20.246 13.7312 19.5081C15.5127 18.7701 17.0355 17.5204 18.1068 15.9171C19.1782 14.3137 19.75 12.4286 19.75 10.5002C19.7473 7.91522 18.7192 5.43686 16.8913 3.60897C15.0634 1.78108 12.585 0.752974 10 0.750244ZM14.2806 8.78087L9.03063 14.0309C8.96097 14.1006 8.87826 14.1559 8.78721 14.1937C8.69616 14.2314 8.59857 14.2508 8.5 14.2508C8.40144 14.2508 8.30385 14.2314 8.2128 14.1937C8.12175 14.1559 8.03903 14.1006 7.96938 14.0309L5.71938 11.7809C5.57865 11.6401 5.49959 11.4493 5.49959 11.2502C5.49959 11.0512 5.57865 10.8603 5.71938 10.7196C5.86011 10.5789 6.05098 10.4998 6.25 10.4998C6.44903 10.4998 6.6399 10.5789 6.78063 10.7196L8.5 12.4399L13.2194 7.71962C13.2891 7.64994 13.3718 7.59466 13.4628 7.55695C13.5539 7.51924 13.6515 7.49983 13.75 7.49983C13.8486 7.49983 13.9461 7.51924 14.0372 7.55695C14.1282 7.59466 14.2109 7.64994 14.2806 7.71962C14.3503 7.7893 14.4056 7.87203 14.4433 7.96307C14.481 8.05412 14.5004 8.1517 14.5004 8.25024C14.5004 8.34879 14.481 8.44637 14.4433 8.53742C14.4056 8.62846 14.3503 8.71119 14.2806 8.78087Z" fill="#C80000"/>
</svg>
